<?xml version="1.0" encoding="UTF-8" standalone="no"?>
<svg
   xmlns:dc="http://purl.org/dc/elements/1.1/"
   xmlns:cc="http://creativecommons.org/ns#"
   xmlns:rdf="http://www.w3.org/1999/02/22-rdf-syntax-ns#"
   xmlns:svg="http://www.w3.org/2000/svg"
   xmlns="http://www.w3.org/2000/svg"
   xmlns:sodipodi="http://sodipodi.sourceforge.net/DTD/sodipodi-0.dtd"
   xmlns:inkscape="http://www.inkscape.org/namespaces/inkscape"
   version="1.1"
   viewBox="-5 -10 74.987 70.708"
   id="svg36"
   sodipodi:docname="noun-shirt-7364134.svg"
   width="74.987"
   height="70.708"
   inkscape:version="0.92.3 (2405546, 2018-03-11)">
  <metadata
     id="metadata42">
    <rdf:RDF>
      <cc:Work
         rdf:about="">
        <dc:format>image/svg+xml</dc:format>
        <dc:type
           rdf:resource="http://purl.org/dc/dcmitype/StillImage" />
        <dc:title></dc:title>
      </cc:Work>
    </rdf:RDF>
  </metadata>
  <defs
     id="defs40" />
  <sodipodi:namedview
     pagecolor="#ffffff"
     bordercolor="#666666"
     borderopacity="1"
     objecttolerance="10"
     gridtolerance="10"
     guidetolerance="10"
     inkscape:pageopacity="0"
     inkscape:pageshadow="2"
     inkscape:window-width="1920"
     inkscape:window-height="1001"
     id="namedview38"
     showgrid="false"
     inkscape:zoom="1.7481481"
     inkscape:cx="55"
     inkscape:cy="67.5"
     inkscape:window-x="-9"
     inkscape:window-y="-9"
     inkscape:window-maximized="1"
     inkscape:current-layer="svg36" />
  <g
     id="g4567"
     transform="translate(-96.447506,134.03083)">
    <path
       style="fill-rule:evenodd"
       inkscape:connector-curvature="0"
       id="path2"
       d="m 149.40168,-73.325593 h -40.918 c -0.42969,0 -0.78125,-0.35156 -0.78125,-0.78125 v -43.757997 c -0.0625,-0.64453 -1.0586,-9.957 -4.4609,-17.086 -0.17578,-0.37109 -0.0391,-0.81641 0.31641,-1.0156 l 14.012,-7.9609 c 0.35547,-0.20703 0.8125,-0.0937 1.0391,0.25 2.2852,3.4805 6.1484,5.5586 10.332,5.5586 4.1836,0 8.0469,-2.0742 10.332,-5.5586 0.22656,-0.34375 0.67969,-0.45312 1.0391,-0.25 l 14.012,7.9609 c 0.35547,0.19922 0.5,0.64453 0.31641,1.0156 -3.4023,7.1289 -4.3984,16.441 -4.4609,17.086 v 43.757997 c 0,0.42969 -0.35156,0.78125 -0.78125,0.78125 z m -40.137,-1.5625 h 39.355 v -43.015997 c 0,-0.0234 0,-0.0508 0.004,-0.0742 0.008,-0.10156 0.24219,-2.5352 0.92969,-5.9336 0.59375,-2.9727 1.6602,-7.2305 3.3789,-11.051 l -12.77,-7.25 c -2.6172,3.5547 -6.7578,5.6562 -11.223,5.6562 -4.4609,0 -8.6016,-2.1016 -11.219,-5.6602 l -12.77,7.25 c 1.7188,3.8164 2.7852,8.082 3.3789,11.051 0.68359,3.3984 0.91797,5.832 0.92969,5.9336 0,0.0234 0.004,0.0508 0.004,0.0742 v 43.022997 z" />
    <path
       style="fill-rule:evenodd"
       inkscape:connector-curvature="0"
       id="path4"
       d="m 128.94068,-127.86859 c -3.9023,0 -7.7539,-1.0195 -11.148,-2.9453 -3.2812,-1.8672 -6.0703,-4.5352 -8.0703,-7.7266 -0.23047,-0.36719 -0.11719,-0.85156 0.25,-1.0781 0.36719,-0.23047 0.85156,-0.11719 1.0781,0.25 3.8984,6.2227 10.586,9.9375 17.891,9.9375 7.305,0 13.992,-3.7148 17.891,-9.9375 0.23047,-0.36719 0.71094,-0.47656 1.0781,-0.25 0.36719,0.23047 0.47656,0.71094 0.25,1.0781 -1.9961,3.1875 -4.7891,5.8594 -8.0703,7.7266 -3.3945,1.9258 -7.2461,2.9453 -11.148,2.9453 z" />
    <path
       style="fill-rule:evenodd"
       inkscape:connector-curvature="0"
       id="path6"
       d="m 149.40168,-78.747593 h -40.918 c -0.42969,0 -0.78125,-0.35156 -0.78125,-0.78125 0,-0.42969 0.35156,-0.78125 0.78125,-0.78125 h 40.918 c 0.42969,0 0.78125,0.35156 0.78125,0.78125 0,0.42969 -0.35156,0.78125 -0.78125,0.78125 z" />
    <path
       style="fill-rule:evenodd"
       inkscape:connector-curvature="0"
       id="path8"
       d="m 96.713678,-96.079593 c -0.375,0 -0.70313,-0.26953 -0.76953,-0.64844 -0.72656,-4.308597 -0.82422,-6.425797 0.0039,-10.491997 0.66016,-3.2109 1.2461,-6.4844 1.8086,-9.6484 0.19141,-1.0547 0.38672,-2.1484 0.58203,-3.2227 0.07812,-0.42578 0.48437,-0.70703 0.91016,-0.62891 0.42578,0.0781 0.70703,0.48438 0.62891,0.91016 -0.19531,1.0742 -0.39062,2.1641 -0.58203,3.2227 -0.56641,3.1719 -1.1562,6.4531 -1.8164,9.6875 -0.78125,3.8164 -0.68359,5.8242 0.0039,9.917997 0.07422,0.42578 -0.21484,0.82813 -0.64062,0.89844 -0.03906,0.0039 -0.08203,0.0078 -0.12891,0.0078 z" />
    <path
       style="fill-rule:evenodd"
       inkscape:connector-curvature="0"
       id="path10"
       d="M 108.48368,-73.325593 H 97.448678 c -0.23437,0 -0.46094,-0.10937 -0.60547,-0.28906 -1.1172,-1.3672 -1.543,-4.2617 -1.7734,-5.8164 -0.01953,-0.13281 -0.03906,-0.25391 -0.05469,-0.35938 l -2.8789,-16.25 c -0.85547,-4.718797 -0.98047,-7.238297 0.0039,-11.960997 0.62109,-3.1406 1.6914,-8.9102 2.3398,-12.77 v -0.004 c 0.48438,-2.7266 1.6016,-5.5898 3.2383,-8.293 1.5469,-2.5508 3.519502,-4.9023 5.707002,-6.8125 0.32812,-0.28516 0.82031,-0.25 1.1055,0.0742 0.28516,0.32812 0.25,0.82031 -0.0742,1.1055 -4.3203,3.7656 -7.554702,9.2031 -8.437502,14.195 -0.65234,3.8711 -1.7305,9.6641 -2.3477,12.812 v 0.008 c -0.94141,4.5117 -0.82422,6.7969 0.0039,11.370997 l 2.8789,16.266 c 0,0.0039 0,0.0078 0.0039,0.01953 0.01953,0.11328 0.03516,0.23828 0.05859,0.38281 0.17578,1.1953 0.52734,3.582 1.2344,4.7656 h 10.629002 c 0.42969,0 0.78125,0.35156 0.78125,0.78125 0,0.42969 -0.35156,0.77734 -0.78125,0.77734 z" />
    <path
       style="fill-rule:evenodd"
       inkscape:connector-curvature="0"
       id="path12"
       d="M 108.48368,-82.357593 H 95.202678 c -0.42969,0 -0.78125,-0.35156 -0.78125,-0.78125 0,-0.42969 0.35156,-0.78125 0.78125,-0.78125 h 13.281002 c 0.42969,0 0.78125,0.35156 0.78125,0.78125 0,0.42969 -0.35156,0.78125 -0.78125,0.78125 z" />
    <path
       style="fill-rule:evenodd"
       inkscape:connector-curvature="0"
       id="path14"
       d="m 161.16768,-96.079593 c -0.043,0 -0.0898,-0.0039 -0.13281,-0.0078 -0.42578,-0.07422 -0.71094,-0.47266 -0.64062,-0.89844 0.6875,-4.093797 0.78516,-6.097697 0.004,-9.917997 -0.66016,-3.2305 -1.25,-6.5117 -1.8164,-9.6875 -0.19141,-1.0547 -0.38672,-2.1484 -0.58203,-3.2227 -0.0781,-0.42578 0.20703,-0.82812 0.62891,-0.91016 0.42578,-0.0781 0.82812,0.20703 0.91016,0.62891 0.19531,1.0742 0.39062,2.168 0.58203,3.2227 0.56641,3.1641 1.1523,6.4375 1.8086,9.6484 0.83594,4.0625 0.73438,6.1875 0.004,10.491997 -0.0586,0.38281 -0.39063,0.64844 -0.76563,0.64844 z" />
    <path
       style="fill-rule:evenodd"
       inkscape:connector-curvature="0"
       id="path16"
       d="m 160.43668,-73.325593 h -11.035 c -0.42969,0 -0.78125,-0.35156 -0.78125,-0.78125 0,-0.42969 0.35156,-0.78125 0.78125,-0.78125 h 10.629 c 0.70703,-1.1875 1.0586,-3.5703 1.2344,-4.7656 0.0195,-0.14063 0.0391,-0.26953 0.0586,-0.38281 0,-0.0039 0,-0.0078 0.004,-0.01953 l 2.8789,-16.262 c 0.82812,-4.578097 0.94141,-6.859397 0.004,-11.370997 v -0.008 c -0.62109,-3.1484 -1.6953,-8.9414 -2.3477,-12.812 -0.88281,-4.9844 -4.1172,-10.426 -8.4375,-14.195 -0.32812,-0.28516 -0.35938,-0.77734 -0.0742,-1.1055 0.28516,-0.32813 0.77734,-0.35938 1.1055,-0.0742 2.1875,1.9102 4.1641,4.2617 5.707,6.8125 1.6367,2.6953 2.7539,5.5625 3.2383,8.293 v 0.004 c 0.64844,3.8594 1.7188,9.6289 2.3398,12.77 0.98828,4.7266 0.85547,7.2461 0.004,11.960997 l -2.8789,16.25 c -0.0156,0.10938 -0.0352,0.23047 -0.0547,0.35938 -0.23047,1.5547 -0.65234,4.4453 -1.7734,5.8164 -0.14844,0.17969 -0.37109,0.28906 -0.60547,0.28906 z" />
    <path
       style="fill-rule:evenodd"
       inkscape:connector-curvature="0"
       id="path18"
       d="m 162.68268,-82.357593 h -13.281 c -0.42969,0 -0.78125,-0.35156 -0.78125,-0.78125 0,-0.42969 0.35156,-0.78125 0.78125,-0.78125 h 13.281 c 0.42969,0 0.78125,0.35156 0.78125,0.78125 0,0.42969 -0.35156,0.78125 -0.78125,0.78125 z" />
    <path
       style="fill-rule:evenodd"
       inkscape:connector-curvature="0"
       id="path20"
       d="m 139.04968,-110.09159 c -0.31641,0 -0.61719,-0.19531 -0.73438,-0.51172 -1.5859,-4.3086 -5.7461,-7.2031 -10.352,-7.2031 -0.082,0 -0.17969,0.008 -0.28906,0.0195 -0.13281,0.0156 -0.28516,0.0312 -0.44531,0.0312 -0.42969,0 -0.78125,-0.35156 -0.78125,-0.78125 0,-0.42969 0.35156,-0.78125 0.78125,-0.78125 0.082,0 0.17969,-0.008 0.28906,-0.0195 0.13281,-0.0156 0.28516,-0.0312 0.44531,-0.0312 2.582,0 5.0742,0.78125 7.1953,2.2578 2.1289,1.4805 3.7266,3.5469 4.6211,5.9688 0.15234,0.40625 -0.0586,0.85547 -0.46484,1 -0.0898,0.0391 -0.17969,0.0547 -0.26953,0.0547 z" />
    <path
       style="fill-rule:evenodd"
       inkscape:connector-curvature="0"
       id="path22"
       d="m 119.03068,-98.325593 c -0.19922,0 -0.40234,-0.07812 -0.55078,-0.23047 -0.23437,-0.23438 -0.41016,-0.46484 -0.5625,-0.66797 -1.5547,-2.066397 -2.418,-4.519497 -2.5,-7.109397 -0.0781,-2.5742 0.62109,-5.082 2.0312,-7.2617 0.23438,-0.35938 0.71875,-0.46484 1.0781,-0.23047 0.35937,0.23438 0.46484,0.71875 0.23047,1.0781 -2.5039,3.8711 -2.3438,8.9297 0.40625,12.582 0.14062,0.183587 0.25781,0.347657 0.41406,0.503907 0.30078,0.30078 0.30078,0.80078 0,1.1055 -0.14844,0.15234 -0.34766,0.23047 -0.54688,0.23047 z" />
    <path
       style="fill-rule:evenodd"
       inkscape:connector-curvature="0"
       id="path24"
       d="m 127.93668,-94.189593 c -0.50781,0 -1.0156,-0.03125 -1.5273,-0.09375 -0.42969,-0.05078 -0.73438,-0.44141 -0.68359,-0.87109 0.0508,-0.42969 0.44141,-0.73438 0.87109,-0.68359 4.6328,0.55078 9.0195,-1.7578 11.176,-5.878897 l 0.28906,-0.58203 c 0.19531,-0.38672 0.66406,-0.54297 1.0508,-0.35156 0.38672,0.19531 0.54297,0.66406 0.35156,1.0508 l -0.29297,0.58594 c 0,0.004 -0.004,0.008 -0.004,0.0156 -1.2031,2.292997 -3.043,4.144497 -5.3242,5.347697 -1.832,0.96875 -3.8477,1.4609 -5.9023,1.4609 z" />
    <path
       style="fill-rule:evenodd"
       inkscape:connector-curvature="0"
       id="path26"
       d="m 127.23368,-114.39259 c -0.17578,0 -0.35156,-0.0586 -0.49219,-0.17578 l -4.1016,-3.3203 c -0.17969,-0.14844 -0.28906,-0.37109 -0.28906,-0.60547 0,-0.23438 0.10156,-0.46094 0.28516,-0.60547 l 4.1016,-3.3711 c 0.23438,-0.19141 0.55859,-0.23047 0.82812,-0.10156 0.27344,0.125 0.44922,0.40625 0.44922,0.70703 v 6.6875 c 0,0.30078 -0.17188,0.57812 -0.44531,0.70312 -0.10938,0.0547 -0.22656,0.0781 -0.33594,0.0781 z m -2.8672,-4.1055 2.0859,1.6914 v -3.3984 z" />
    <path
       style="fill-rule:evenodd"
       inkscape:connector-curvature="0"
       id="path28"
       d="m 121.71368,-95.298593 c -0.0234,0 -0.0547,0 -0.0781,-0.0039 l -5.2227,-0.53516 c -0.29688,-0.03125 -0.55859,-0.23047 -0.65234,-0.51953 -0.10156,-0.28516 -0.0312,-0.60156 0.18359,-0.81641 l 4.7383,-4.738297 c 0.21484,-0.21484 0.53125,-0.28516 0.81641,-0.17969 0.28516,0.10156 0.48438,0.35937 0.51172,0.66406 l 0.48828,5.273397 c 0.0195,0.23437 -0.0625,0.46484 -0.23047,0.625 -0.15234,0.15234 -0.34766,0.23047 -0.55078,0.23047 z m -3.5117,-1.9297 2.6445,0.27344 -0.25,-2.6719 -2.3984,2.3984 z" />
    <path
       style="fill-rule:evenodd"
       inkscape:connector-curvature="0"
       id="path30"
       d="m 141.68668,-99.447593 c -0.13672,0 -0.27344,-0.03516 -0.39453,-0.10938 l -5.7617,-3.371097 c -0.25781,-0.15234 -0.41016,-0.44141 -0.38672,-0.74219 0.0234,-0.30078 0.21875,-0.55859 0.50391,-0.66406 l 4.9297,-1.8555 c 0.21875,-0.082 0.46484,-0.0625 0.66797,0.0547 0.20703,0.11719 0.34375,0.32422 0.38281,0.55078 l 0.82812,5.2227 c 0.0508,0.29688 -0.082,0.593747 -0.33203,0.765617 -0.13281,0.09766 -0.28125,0.14062 -0.4375,0.14062 z m -3.9492,-3.999997 2.9219,1.707 -0.41797,-2.6445 -2.5,0.9375 z" />
  </g>
</svg>
